<svg width="15" height="15" viewBox="0 0 15 15" fill="none" xmlns="http://www.w3.org/2000/svg">
<path d="M6.25 1.875C6.07292 1.875 5.92448 1.8151 5.80469 1.69531C5.6849 1.57552 5.625 1.42708 5.625 1.25C5.625 1.07292 5.6849 0.924479 5.80469 0.804688C5.92448 0.684896 6.07292 0.625 6.25 0.625H8.75C8.92708 0.625 9.07552 0.684896 9.19531 0.804688C9.3151 0.924479 9.375 1.07292 9.375 1.25C9.375 1.42708 9.3151 1.57552 9.19531 1.69531C9.07552 1.8151 8.92708 1.875 8.75 1.875H6.25ZM7.5 8.75C7.67708 8.75 7.82552 8.6901 7.94531 8.57031C8.0651 8.45052 8.125 8.30208 8.125 8.125V5.625C8.125 5.44792 8.0651 5.29948 7.94531 5.17969C7.82552 5.0599 7.67708 5 7.5 5C7.32292 5 7.17448 5.0599 7.05469 5.17969C6.9349 5.29948 6.875 5.44792 6.875 5.625V8.125C6.875 8.30208 6.9349 8.45052 7.05469 8.57031C7.17448 8.6901 7.32292 8.75 7.5 8.75ZM7.5 13.75C6.72917 13.75 6.0026 13.6016 5.32031 13.3047C4.63802 13.0078 4.04167 12.6042 3.53125 12.0938C3.02083 11.5833 2.61719 10.987 2.32031 10.3047C2.02344 9.6224 1.875 8.89583 1.875 8.125C1.875 7.35417 2.02344 6.6276 2.32031 5.94531C2.61719 5.26302 3.02083 4.66667 3.53125 4.15625C4.04167 3.64583 4.63802 3.24219 5.32031 2.94531C6.0026 2.64844 6.72917 2.5 7.5 2.5C8.14583 2.5 8.76562 2.60417 9.35938 2.8125C9.95312 3.02083 10.5104 3.32292 11.0312 3.71875L11.4688 3.28125C11.5833 3.16667 11.7292 3.10938 11.9062 3.10938C12.0833 3.10938 12.2292 3.16667 12.3438 3.28125C12.4583 3.39583 12.5156 3.54167 12.5156 3.71875C12.5156 3.89583 12.4583 4.04167 12.3438 4.15625L11.9062 4.59375C12.3021 5.11458 12.6042 5.67188 12.8125 6.26562C13.0208 6.85938 13.125 7.47917 13.125 8.125C13.125 8.89583 12.9766 9.6224 12.6797 10.3047C12.3828 10.987 11.9792 11.5833 11.4688 12.0938C10.9583 12.6042 10.362 13.0078 9.67969 13.3047C8.9974 13.6016 8.27083 13.75 7.5 13.75ZM7.5 12.5C8.70833 12.5 9.73958 12.0729 10.5938 11.2188C11.4479 10.3646 11.875 9.33333 11.875 8.125C11.875 6.91667 11.4479 5.88542 10.5938 5.03125C9.73958 4.17708 8.70833 3.75 7.5 3.75C6.29167 3.75 5.26042 4.17708 4.40625 5.03125C3.55208 5.88542 3.125 6.91667 3.125 8.125C3.125 9.33333 3.55208 10.3646 4.40625 11.2188C5.26042 12.0729 6.29167 12.5 7.5 12.5Z" fill="#E3E3E3"/>
</svg>
